<svg width="152" height="174" viewBox="0 0 152 174" fill="none" xmlns="http://www.w3.org/2000/svg">
<path d="M40.548 110.453C62.4933 110.453 77.608 91.56 77.608 64.3827C77.608 37.2053 62.4933 18.312 40.548 18.312C18.6027 18.312 3.63333 37.2053 3.63333 64.3827C3.63333 91.56 18.6027 110.453 40.548 110.453ZM40.548 38.804C50.8667 38.804 54.936 50.576 54.936 64.3827C54.936 78.1893 50.8667 89.9613 40.548 89.9613C30.2293 89.9613 26.16 78.1893 26.16 64.3827C26.16 50.576 30.2293 38.804 40.548 38.804ZM143.966 19.7653H128.27L100.512 32.9907V55.0813L121.294 45.0533V109H143.966V19.7653Z" fill="white" fill-opacity="0.2"/>
<path d="M67.7 122.86C67.7 126.64 70.12 129.2 73.28 129.2C76.04 129.2 77.82 127.6 78.28 125.12H76.24C75.76 126.44 74.92 127.32 73.28 127.32C71.1 127.32 69.8 125.42 69.8 122.86C69.8 120.28 71.12 118.4 73.28 118.4C74.92 118.4 75.76 119.28 76.24 120.58H78.28C77.82 118.12 76.06 116.52 73.28 116.52C70.12 116.52 67.7 119.08 67.7 122.86ZM80.1736 129H82.1736V123.16C82.3936 122.28 83.1736 121.74 84.0336 121.74C85.1736 121.74 85.7136 122.46 85.7136 123.56V129H87.7136V123.22C87.7136 121.26 86.5936 119.92 84.5736 119.92C83.5336 119.92 82.6536 120.4 82.1736 120.96V116H80.1736V129ZM96.9159 129V123.18C96.9159 121.16 95.5959 119.92 93.3559 119.92C91.5359 119.92 90.1359 121.06 89.8759 122.58H91.7959C92.0159 121.96 92.5159 121.62 93.3159 121.62C94.4559 121.62 95.0159 122.32 95.0159 123.22V123.94C94.6559 123.68 93.7559 123.4 92.9559 123.4C90.9959 123.4 89.4959 124.58 89.4959 126.26C89.4959 128.08 90.9959 129.16 92.8159 129.16C93.8159 129.16 94.7159 128.8 95.0159 128.5V129H96.9159ZM95.0159 126.64C94.7959 127.2 93.9959 127.54 93.1959 127.54C92.2959 127.54 91.3559 127.16 91.3559 126.26C91.3559 125.38 92.2959 125 93.1959 125C93.9959 125 94.7959 125.34 95.0159 125.9V126.64ZM101.275 116H99.2752V129H101.275V116ZM105.748 116H103.748V129H105.748V116ZM113.7 126.24C113.48 127.1 112.76 127.52 111.8 127.52C110.52 127.52 109.62 126.58 109.56 125.02H115.62V124.3C115.62 121.7 114.26 119.92 111.76 119.92C109.34 119.92 107.6 121.92 107.6 124.58C107.6 127.32 109.32 129.2 111.8 129.2C113.94 129.2 115.24 128 115.54 126.24H113.7ZM111.78 121.6C113 121.6 113.62 122.48 113.64 123.56H109.62C109.86 122.28 110.68 121.6 111.78 121.6ZM117.459 129H119.459V123.16C119.679 122.28 120.459 121.74 121.319 121.74C122.459 121.74 122.999 122.46 122.999 123.56V129H124.999V123.22C124.999 121.26 123.879 119.92 121.859 119.92C120.819 119.92 119.939 120.4 119.459 120.96V120.12H117.459V129ZM133.121 128.4C133.121 130.06 132.421 130.96 130.941 130.96C129.841 130.96 129.141 130.46 128.941 129.48H127.001C127.221 131.42 128.681 132.6 130.941 132.6C133.301 132.6 135.121 131.26 135.121 128.26V120.12H133.121V120.84C132.721 120.36 131.861 119.92 130.861 119.92C128.241 119.92 126.741 122.08 126.741 124.42C126.741 126.76 128.241 128.92 130.861 128.92C131.861 128.92 132.721 128.48 133.121 128V128.4ZM133.121 126.1C132.781 126.7 132.041 127.16 131.201 127.16C129.661 127.16 128.781 126 128.781 124.42C128.781 122.84 129.661 121.68 131.201 121.68C132.041 121.68 132.781 122.14 133.121 122.74V126.1ZM143.075 126.24C142.855 127.1 142.135 127.52 141.175 127.52C139.895 127.52 138.995 126.58 138.935 125.02H144.995V124.3C144.995 121.7 143.635 119.92 141.135 119.92C138.715 119.92 136.975 121.92 136.975 124.58C136.975 127.32 138.695 129.2 141.175 129.2C143.315 129.2 144.615 128 144.915 126.24H143.075ZM141.155 121.6C142.375 121.6 142.995 122.48 143.015 123.56H138.995C139.235 122.28 140.055 121.6 141.155 121.6Z" fill="white" fill-opacity="0.89"/>
<path d="M146 137H67V139H146V137Z" fill="#00D856" mask="url(#path-2-inside-1_1_28)"/>
</svg>
