<svg width="170" height="174" viewBox="0 0 170 174" fill="none" xmlns="http://www.w3.org/2000/svg">
<path d="M40.548 110.453C62.4933 110.453 77.608 91.56 77.608 64.3827C77.608 37.2053 62.4933 18.312 40.548 18.312C18.6027 18.312 3.63333 37.2053 3.63333 64.3827C3.63333 91.56 18.6027 110.453 40.548 110.453ZM40.548 38.804C50.8667 38.804 54.936 50.576 54.936 64.3827C54.936 78.1893 50.8667 89.9613 40.548 89.9613C30.2293 89.9613 26.16 78.1893 26.16 64.3827C26.16 50.576 30.2293 38.804 40.548 38.804ZM141.509 47.524C141.509 52.756 137.44 57.2613 131.336 63.5107L100.671 94.0307V109H165.344V88.944H133.225L147.904 74.4107C156.915 65.6907 165.053 57.552 165.053 46.0707C165.053 29.5027 152.7 18.312 133.08 18.312C114.041 18.312 101.979 31.5373 100.235 48.1053H124.36C124.651 43.3093 127.557 39.24 133.08 39.24C138.312 39.24 141.509 42.728 141.509 47.524Z" fill="white" fill-opacity="0.2"/>
<path d="M96.2442 124.02L99.6642 129H102.024L98.4642 123.94C100.404 123.64 101.604 122.46 101.604 120.4C101.604 118 99.9642 116.72 97.4242 116.72H92.6842V129H94.7642V124.02H96.2442ZM94.7642 118.52H97.3842C98.7642 118.52 99.5442 119.26 99.5442 120.4C99.5442 121.54 98.7642 122.28 97.3842 122.28H94.7642V118.52ZM109.04 126.24C108.82 127.1 108.1 127.52 107.14 127.52C105.86 127.52 104.96 126.58 104.9 125.02H110.96V124.3C110.96 121.7 109.6 119.92 107.1 119.92C104.68 119.92 102.94 121.92 102.94 124.58C102.94 127.32 104.66 129.2 107.14 129.2C109.28 129.2 110.58 128 110.88 126.24H109.04ZM107.12 121.6C108.34 121.6 108.96 122.48 108.98 123.56H104.96C105.2 122.28 106.02 121.6 107.12 121.6ZM112.179 126.44C112.439 128.16 113.879 129.2 115.959 129.2C117.959 129.2 119.419 128.12 119.419 126.36C119.419 125.06 118.659 124.2 117.139 123.84L115.259 123.4C114.619 123.24 114.339 122.98 114.339 122.58C114.339 121.88 115.059 121.56 115.759 121.56C116.679 121.56 117.199 121.96 117.379 122.54H119.339C119.039 120.92 117.859 119.92 115.779 119.92C113.839 119.92 112.419 121.1 112.419 122.7C112.419 124.16 113.359 124.84 114.619 125.14L116.459 125.58C117.199 125.76 117.499 126.02 117.499 126.5C117.499 127.2 116.899 127.56 115.979 127.56C115.099 127.56 114.439 127.18 114.219 126.44H112.179ZM126.853 126.24C126.633 127.1 125.913 127.52 124.953 127.52C123.673 127.52 122.773 126.58 122.713 125.02H128.773V124.3C128.773 121.7 127.413 119.92 124.913 119.92C122.493 119.92 120.753 121.92 120.753 124.58C120.753 127.32 122.473 129.2 124.953 129.2C127.093 129.2 128.393 128 128.693 126.24H126.853ZM124.933 121.6C126.153 121.6 126.773 122.48 126.793 123.56H122.773C123.013 122.28 123.833 121.6 124.933 121.6ZM137.451 129V123.18C137.451 121.16 136.131 119.92 133.891 119.92C132.071 119.92 130.671 121.06 130.411 122.58H132.331C132.551 121.96 133.051 121.62 133.851 121.62C134.991 121.62 135.551 122.32 135.551 123.22V123.94C135.191 123.68 134.291 123.4 133.491 123.4C131.531 123.4 130.031 124.58 130.031 126.26C130.031 128.08 131.531 129.16 133.351 129.16C134.351 129.16 135.251 128.8 135.551 128.5V129H137.451ZM135.551 126.64C135.331 127.2 134.531 127.54 133.731 127.54C132.831 127.54 131.891 127.16 131.891 126.26C131.891 125.38 132.831 125 133.731 125C134.531 125 135.331 125.34 135.551 125.9V126.64ZM144.77 120.08C144.63 120 144.23 119.92 143.79 119.92C142.93 119.92 142.15 120.38 141.81 121.04V120.12H139.81V129H141.81V123.26C142.01 122.3 142.77 121.84 143.59 121.84C144.01 121.84 144.49 121.94 144.77 122.14V120.08ZM145.694 124.56C145.694 127.32 147.434 129.2 149.834 129.2C151.954 129.2 153.294 128 153.554 126.22H151.554C151.394 127.02 150.734 127.46 149.854 127.46C148.514 127.46 147.694 126.24 147.694 124.56C147.694 122.88 148.514 121.66 149.854 121.66C150.734 121.66 151.394 122.1 151.554 122.9H153.554C153.294 121.12 151.954 119.92 149.834 119.92C147.434 119.92 145.694 121.8 145.694 124.56ZM155.338 129H157.338V123.16C157.558 122.28 158.338 121.74 159.198 121.74C160.338 121.74 160.878 122.46 160.878 123.56V129H162.878V123.22C162.878 121.26 161.758 119.92 159.738 119.92C158.698 119.92 157.818 120.4 157.338 120.96V116H155.338V129Z" fill="white" fill-opacity="0.89"/>
<path d="M164 137H91V139H164V137Z" fill="#00D856" mask="url(#path-2-inside-1_1_35)"/>
</svg>
