<svg width="170" height="174" viewBox="0 0 170 174" fill="none" xmlns="http://www.w3.org/2000/svg">
<path d="M40.548 110.453C62.4933 110.453 77.608 91.56 77.608 64.3827C77.608 37.2053 62.4933 18.312 40.548 18.312C18.6027 18.312 3.63333 37.2053 3.63333 64.3827C3.63333 91.56 18.6027 110.453 40.548 110.453ZM40.548 38.804C50.8667 38.804 54.936 50.576 54.936 64.3827C54.936 78.1893 50.8667 89.9613 40.548 89.9613C30.2293 89.9613 26.16 78.1893 26.16 64.3827C26.16 50.576 30.2293 38.804 40.548 38.804ZM126.955 72.2307H132.478C139.309 72.2307 144.105 75.428 144.105 81.532C144.105 87.2 140.035 90.8333 134.222 90.8333C127.537 90.8333 123.903 86.4733 123.322 80.3693H100.069C101.231 98.3907 114.166 110.453 134.658 110.453C154.278 110.453 166.341 98.536 166.341 82.6947C166.341 74.556 162.562 67.2893 155.441 63.9467C160.963 60.8947 165.178 53.3373 165.178 45.6347C165.178 29.5027 153.551 18.312 134.803 18.312C115.183 18.312 103.266 31.5373 101.377 47.6693H123.758C124.339 42.292 127.827 37.7867 134.077 37.7867C139.745 37.7867 143.087 41.5653 143.087 46.5067C143.087 52.756 138.146 55.5173 131.751 55.5173H126.955V72.2307Z" fill="white" fill-opacity="0.2"/>
<path d="M91.2367 126.42C93.7767 126.42 95.4367 125.08 95.4367 122.58C95.4367 120.04 93.7767 118.72 91.2367 118.72H86.4967V131H88.5767V126.42H91.2367ZM93.3767 122.58C93.3767 123.76 92.6367 124.62 91.1967 124.62H88.5767V120.52H91.1967C92.6367 120.52 93.3767 121.36 93.3767 122.58ZM103.822 131V125.18C103.822 123.16 102.502 121.92 100.262 121.92C98.4422 121.92 97.0422 123.06 96.7822 124.58H98.7022C98.9222 123.96 99.4222 123.62 100.222 123.62C101.362 123.62 101.922 124.32 101.922 125.22V125.94C101.562 125.68 100.662 125.4 99.8622 125.4C97.9022 125.4 96.4022 126.58 96.4022 128.26C96.4022 130.08 97.9022 131.16 99.7222 131.16C100.722 131.16 101.622 130.8 101.922 130.5V131H103.822ZM101.922 128.64C101.702 129.2 100.902 129.54 100.102 129.54C99.2022 129.54 98.2622 129.16 98.2622 128.26C98.2622 127.38 99.2022 127 100.102 127C100.902 127 101.702 127.34 101.922 127.9V128.64ZM108.181 122.12H106.181V131H108.181V122.12ZM108.421 119.44C108.421 118.76 107.841 118.22 107.181 118.22C106.521 118.22 105.941 118.76 105.941 119.44C105.941 120.12 106.521 120.66 107.181 120.66C107.841 120.66 108.421 120.12 108.421 119.44ZM110.654 131H112.654V125.16C112.874 124.28 113.654 123.74 114.514 123.74C115.654 123.74 116.194 124.46 116.194 125.56V131H118.194V125.22C118.194 123.26 117.074 121.92 115.054 121.92C114.014 121.92 113.134 122.4 112.654 122.96V122.12H110.654V131ZM129.83 126.42C132.37 126.42 134.03 125.08 134.03 122.58C134.03 120.04 132.37 118.72 129.83 118.72H125.09V131H127.17V126.42H129.83ZM131.97 122.58C131.97 123.76 131.23 124.62 129.79 124.62H127.17V120.52H129.79C131.23 120.52 131.97 121.36 131.97 122.58ZM143.298 126.56C143.298 123.84 141.578 121.92 139.078 121.92C136.578 121.92 134.858 123.84 134.858 126.56C134.858 129.28 136.578 131.2 139.078 131.2C141.578 131.2 143.298 129.28 143.298 126.56ZM141.298 126.56C141.298 128.24 140.518 129.48 139.078 129.48C137.638 129.48 136.858 128.24 136.858 126.56C136.858 124.88 137.638 123.64 139.078 123.64C140.518 123.64 141.298 124.88 141.298 126.56ZM147.166 122.12H145.166V131H147.166V122.12ZM147.406 119.44C147.406 118.76 146.826 118.22 146.166 118.22C145.506 118.22 144.926 118.76 144.926 119.44C144.926 120.12 145.506 120.66 146.166 120.66C146.826 120.66 147.406 120.12 147.406 119.44ZM149.638 131H151.638V125.16C151.858 124.28 152.638 123.74 153.498 123.74C154.638 123.74 155.178 124.46 155.178 125.56V131H157.178V125.22C157.178 123.26 156.058 121.92 154.038 121.92C152.998 121.92 152.118 122.4 151.638 122.96V122.12H149.638V131ZM160.001 128.6C160.001 130.36 161.121 131.2 162.701 131.2C163.321 131.2 163.861 131.08 164.201 130.88V129.06C163.921 129.26 163.461 129.42 163.061 129.42C162.401 129.42 162.001 129.1 162.001 128.38V123.78H164.001V122.12H162.001V119.74H160.001V122.12H158.601V123.78H160.001V128.6Z" fill="white" fill-opacity="0.89"/>
<path d="M165 139H85V141H165V139Z" fill="#00D856" mask="url(#path-2-inside-1_1_105)"/>
</svg>
