<svg width="45" height="47" viewBox="0 0 45 47" fill="none" xmlns="http://www.w3.org/2000/svg">
<path d="M28.3909 17.0131H25.8719V27.7439L18.4158 17.0131H15.9473V32.4795H18.4662V21.2198L26.3757 32.4795H28.3909V17.0131Z" fill="#64FFDA"/>
<path d="M21.352 1.66277C22.0624 1.25265 22.9376 1.25265 23.648 1.66277L40.8376 11.5872C41.548 11.9974 41.9856 12.7553 41.9856 13.5755V33.4245C41.9856 34.2447 41.548 35.0026 40.8376 35.4128L23.648 45.3372C22.9376 45.7474 22.0624 45.7474 21.352 45.3372L4.16239 35.4128C3.45203 35.0026 3.01443 34.2447 3.01443 33.4245V13.5755C3.01443 12.7553 3.45203 11.9974 4.16239 11.5872L21.352 1.66277Z" stroke="#64FFDA" stroke-width="2.29592"/>
</svg>
